<svg width="64" height="65" viewBox="0 0 64 65" fill="none" xmlns="http://www.w3.org/2000/svg">
<g clip-path="url(#clip0_115_270)">
<path fill-rule="evenodd" clip-rule="evenodd" d="M30.6346 55.2291C30.8967 55.4912 31.2522 55.6384 31.6228 55.6384C31.9935 55.6384 32.349 55.4912 32.6111 55.2291L44.4697 43.3704C44.7318 43.1084 44.879 42.7529 44.879 42.3822C44.879 42.0116 44.7318 41.6561 44.4697 41.394C44.2076 41.1319 43.8521 40.9847 43.4815 40.9847C43.1108 40.9847 42.7553 41.1319 42.4933 41.394L33.0202 50.8671L33.0222 10.7592C33.0222 10.3881 32.8747 10.0321 32.6123 9.76971C32.3499 9.50729 31.994 9.35986 31.6228 9.35986C31.2517 9.35986 30.8958 9.50729 30.6334 9.76971C30.3709 10.0321 30.2235 10.3881 30.2235 10.7592L30.2255 50.8671L20.7524 41.394C20.4903 41.1319 20.1348 40.9847 19.7642 40.9847C19.3935 40.9847 19.0381 41.1319 18.776 41.394C18.5139 41.6561 18.3666 42.0116 18.3666 42.3822C18.3666 42.7529 18.5139 43.1084 18.776 43.3705L30.6346 55.2291Z" fill="#F8F8F8"/>
</g>
<defs>
<clipPath id="clip0_115_270">
<rect width="44.7217" height="44.7217" fill="white" transform="translate(0 32.5) rotate(-45)"/>
</clipPath>
</defs>
</svg>
